<svg width="202" height="181" viewBox="0 0 202 181" fill="none" xmlns="http://www.w3.org/2000/svg">
<g clip-path="url(#clip0_493_73)">
<path d="M15.5993 7.94072C15.5993 4.50287 12.8124 1.71899 9.37756 1.71899C5.94271 1.71899 3.15283 4.50287 3.15283 7.94072C3.15283 8.77768 3.32082 9.57865 3.62081 10.3076C3.74681 10.6106 3.8968 10.8986 4.06779 11.1776L9.37456 21.5181L14.6843 11.1746C14.8523 10.8986 15.0023 10.6136 15.1283 10.3106C15.4283 9.58165 15.5963 8.78368 15.5963 7.94372L15.5993 7.94072ZM9.37756 11.2076C7.55364 11.2076 6.0777 9.73164 6.0777 7.90772C6.0777 6.0838 7.55364 4.60787 9.37756 4.60787C11.2015 4.60787 12.6774 6.0838 12.6774 7.90772C12.6774 9.73164 11.2015 11.2076 9.37756 11.2076Z" fill="#C5F250"/>
<path d="M53.0977 161.351L53.6976 171.85H61.4973L62.0973 161.351H53.0977Z" fill="white"/>
<path d="M61.9232 172.3H53.2746L52.6237 160.901H62.5772L61.9262 172.3H61.9232ZM54.1236 171.4H61.0743L61.6233 161.801H53.5776L54.1266 171.4H54.1236Z" fill="#121212"/>
<path d="M65.5502 27.4068L64.4313 22.1091C64.4313 22.1091 56.0976 27.2538 57.1326 7.8087L70.374 5.00983L74.7028 25.4719L65.5532 27.4068H65.5502Z" fill="white"/>
<path d="M65.2052 27.9407L64.1132 22.772C63.2943 23.1169 61.7013 23.5489 60.1504 22.631C57.4145 21.008 56.2476 16.0132 56.6856 7.78761L56.7036 7.44263L70.7219 4.47876L75.2367 25.8228L65.2082 27.9437L65.2052 27.9407ZM64.7402 21.392L65.8982 26.8728L74.1658 25.1238L70.026 5.54071L57.5645 8.1776C57.1055 17.7052 58.9595 20.876 60.6064 21.854C62.3133 22.8649 64.1762 21.74 64.1942 21.728L64.7372 21.392H64.7402Z" fill="#121212"/>
<path d="M108.646 156.203L117.364 162.086L122.089 155.879L114.097 149.042L108.646 156.203Z" fill="white"/>
<path d="M117.466 162.695L108.001 156.311L114.028 148.392L122.704 155.813L117.466 162.695ZM109.294 156.095L117.265 161.471L121.474 155.939L114.166 149.691L109.294 156.095Z" fill="#121212"/>
<path d="M65.6859 9.94219C65.6676 10.0018 65.6519 10.0573 65.6385 10.1075L65.3107 10.1769L64.6763 8.18223L64.5607 7.81894L64.1878 7.89805C63.3671 8.07214 62.0886 8.25476 60.8583 8.37692C59.6162 8.50027 58.4757 8.55642 57.9104 8.49437C56.5639 8.34662 55.7518 7.81151 55.2562 7.12844C54.7494 6.42997 54.5382 5.52763 54.4992 4.59635C54.4603 3.66876 54.5939 2.75091 54.7403 2.05864C54.7809 1.86651 54.8222 1.69286 54.8607 1.5425C55.4215 1.91564 56.1243 2.09402 56.8695 2.15647C57.8864 2.24169 59.0542 2.11753 60.221 1.91004C61.3912 1.70195 62.5856 1.40515 63.6576 1.13353C63.7411 1.11239 63.8237 1.09142 63.9054 1.07068C64.8839 0.822377 65.7361 0.606124 66.3808 0.499463L66.3809 0.499437C67.3079 0.345704 68.0619 0.425895 68.6793 0.662793C69.2963 0.899552 69.8025 1.30265 70.2192 1.83442C71.0626 2.9106 71.5254 4.49665 71.7509 6.18792C71.975 7.86842 71.958 9.59718 71.8834 10.9118C71.8462 11.5677 71.7949 12.1173 71.753 12.5023C71.739 12.631 71.7261 12.7412 71.7151 12.8307C71.0484 12.9709 70.5181 12.7652 70.1288 12.5002C69.9072 12.3495 69.7344 12.1805 69.617 12.0487C69.5987 12.0282 69.5819 12.0087 69.5665 11.9905C69.5913 11.9104 69.62 11.8118 69.6495 11.6987C69.7296 11.3913 69.8179 10.9671 69.8425 10.5158C69.8668 10.0693 69.8307 9.5627 69.6335 9.11132C69.429 8.64304 69.0566 8.25045 68.4595 8.05898C67.8889 7.87603 67.3895 7.92852 66.9742 8.14341C66.5726 8.35117 66.2884 8.69027 66.0908 9.01638C65.8918 9.3447 65.7639 9.68744 65.6859 9.94219Z" fill="#121212" stroke="white" stroke-width="0.84186"/>
<path d="M15.3773 25.496C15.7883 24.914 16.5953 24.776 17.1772 25.187L30.7186 34.7716C31.3006 35.1826 31.4386 35.9895 31.0276 36.5715C30.6167 37.1535 29.8097 37.2915 29.2277 36.8805L15.6863 27.2959C15.1043 26.8849 14.9663 26.078 15.3773 25.496Z" fill="#C5F250"/>
<path d="M60.8973 33.5564L50.9978 45.2559L34.7985 36.4063L32.3986 30.2566H26.3988C26.3988 30.2566 26.0989 32.9565 29.9987 33.2565L30.2987 37.3063L27.8988 35.8063L29.3987 34.0064C29.3987 34.0064 25.7989 30.4066 21.899 31.6065C21.899 31.6065 22.499 34.9064 23.999 37.0063C23.999 37.0063 26.6988 40.1562 29.0987 41.3561L32.6986 42.856L52.4977 58.7553L68.397 45.2559L60.8973 33.5564Z" fill="white"/>
<path d="M52.5067 59.3375L32.4676 43.2462L28.8978 41.7583C26.4439 40.5313 23.771 37.4295 23.657 37.2975L23.633 37.2675C22.0911 35.1106 21.4821 31.8257 21.4581 31.6877L21.3861 31.2947L21.7671 31.1778C23.342 30.6948 24.854 30.9258 26.1289 31.4057C25.8949 30.7668 25.9489 30.2388 25.9519 30.2088L25.9969 29.8098H32.7076L35.1585 36.0945L50.8928 44.6892L60.9484 32.8037L68.988 45.3461L52.5067 59.3405V59.3375ZM29.2878 40.9453L32.9326 42.4633L52.4917 58.1706L67.8091 45.1661L60.8494 34.3096L51.1058 45.8231L34.4415 36.7185L32.0926 30.7038H26.8699C26.9149 30.9798 27.0349 31.3577 27.3378 31.7147C27.8658 32.3417 28.7718 32.7077 30.0347 32.8037L30.4217 32.8337L30.8147 38.1554L27.2239 35.9115L28.7778 34.0456C27.9018 33.2957 25.2529 31.3067 22.4301 31.9277C22.6401 32.8517 23.243 35.1556 24.356 36.7245C24.557 36.9555 27.0859 39.8354 29.2878 40.9423V40.9453ZM28.5768 35.6956L29.7857 36.4515L29.6357 34.4236L28.5768 35.6956Z" fill="#121212"/>
<path d="M63.4473 73.9047L69.897 120.253L108.145 161.801L115.945 149.201L86.0963 113.953C86.0963 113.953 87.4462 87.1041 85.9463 73.9047H63.4473Z" fill="white"/>
<path d="M108.217 162.542L69.471 120.454L69.453 120.316L62.9313 73.4548H86.3482L86.3932 73.8538C87.8152 86.3783 86.6662 111.433 86.5552 113.797L116.5 149.159L108.217 162.542ZM70.3259 120.052L108.076 161.06L115.393 149.243L85.6403 114.109L85.6493 113.932C85.6613 113.668 86.9542 87.5062 85.5443 74.3578H63.9662L70.3259 120.055V120.052Z" fill="#121212"/>
<path d="M60.5733 71.655L51.5137 110.053L49.7977 162.251H66.966L69.0269 112.153L88.496 71.655H60.5733Z" fill="white"/>
<path d="M67.398 162.701H49.3328L51.0757 109.951L60.2163 71.2051H89.213L69.4739 112.264L67.401 162.701H67.398ZM50.2627 161.801H66.534L68.5799 112.042L68.6189 111.958L87.7791 72.105H60.9273L51.9607 110.113L50.2597 161.801H50.2627Z" fill="#121212"/>
<path d="M39.2983 180.55C39.2983 180.55 38.0983 178.45 40.4982 176.95C40.4982 176.95 50.9978 172.75 53.6976 169.6C53.6976 169.6 56.5025 173.35 61.5483 169.6L63.5942 180.55H39.2953H39.2983Z" fill="white"/>
<path d="M64.1402 181H39.0373L38.9083 180.772C38.4194 179.917 38.0714 177.934 40.2613 176.566L40.3333 176.53C40.4383 176.488 50.7608 172.336 53.3587 169.306L53.7247 168.88L54.0607 169.33C54.1657 169.465 56.6765 172.663 61.2843 169.237L61.8633 168.808L64.1432 181H64.1402ZM39.5863 180.1H63.0573L61.2364 170.368C57.2555 172.978 54.6186 171.13 53.7007 170.257C50.6138 173.326 41.4822 177.04 40.7053 177.352C39.1423 178.348 39.3883 179.584 39.5863 180.1Z" fill="#121212"/>
<path d="M115.567 178.813C115.567 178.813 113.17 178.495 113.428 175.678C113.428 175.678 116.446 164.78 115.573 160.724C115.573 160.724 120.256 160.763 120.328 154.475L130.281 159.476L115.567 178.813Z" fill="white"/>
<path d="M115.768 179.293L115.51 179.26C114.532 179.131 112.747 178.207 112.984 175.637L112.999 175.559C113.029 175.451 115.975 164.72 115.138 160.817L115.021 160.268L115.582 160.274C115.759 160.274 119.818 160.205 119.884 154.469L119.893 153.75L130.974 159.317L115.771 179.293H115.768ZM113.875 175.76C113.722 177.607 114.853 178.156 115.384 178.312L129.597 159.635L120.751 155.189C120.418 159.938 117.349 160.919 116.098 161.12C116.671 165.437 114.094 174.953 113.872 175.757L113.875 175.76Z" fill="#121212"/>
<path d="M74.4177 19.9071L63.6242 26.2008C63.6242 26.2008 59.6014 36.1153 58.6504 40.0062C56.8595 47.3138 61.7223 67.485 58.1434 77.8045L91.349 77.5165C91.349 77.5165 84.5123 38.5362 82.2324 31.9425C79.9525 25.3488 74.4177 19.9041 74.4177 19.9041V19.9071Z" fill="#C5F250"/>
<path d="M58 78.5L87 78" stroke="black"/>
<path d="M73.0468 43.9058C73.0468 43.9058 79.1965 41.6559 82.9463 38.506L85.9462 53.2054L94.3458 83.2041L99.7456 91.6037C99.7456 91.6037 99.4456 95.5035 98.5456 97.0035H97.6457L97.3457 92.8036L93.4459 91.0037C93.4459 91.0037 96.1457 96.7035 94.6458 99.4033L90.146 92.2037L88.6461 82.6041L73.0468 43.9058Z" fill="white"/>
<path d="M94.6698 100.288L89.7171 92.3626L88.2111 82.7241L72.4558 43.6418L72.8938 43.4828C72.9538 43.4618 79.0135 41.2209 82.6584 38.161L83.2373 37.675L86.3842 53.1004L94.7598 83.018L100.205 91.4867L100.193 91.6367C100.181 91.7987 99.8746 95.6595 98.9296 97.2344L98.7976 97.4534H97.2227L96.9107 93.1006L94.3098 91.9007C95.0328 93.7456 96.2238 97.4744 95.0328 99.6223L94.6608 100.288H94.6698ZM90.578 92.0416L94.5438 98.3864C95.0298 96.1545 93.6799 92.5456 93.0409 91.1957L92.5099 90.0737L97.7777 92.5036L98.0657 96.5504H98.2787C98.8666 95.3325 99.1906 92.8096 99.2866 91.7147L93.9319 83.387L93.9139 83.321L85.5052 53.2924L82.6524 39.316C79.4425 41.7939 75.0327 43.6148 73.6348 44.1608L89.0811 82.4811L89.0901 82.5321L90.575 92.0416H90.578Z" fill="#121212"/>
<path d="M96.2231 94.5719L95.0344 95.4866L123.758 132.812L124.947 131.897L96.2231 94.5719Z" fill="#C5F250"/>
<path d="M133.263 125.307L138.435 121.33C139.518 120.496 141.072 120.7 141.906 121.783L170.353 158.75C171.187 159.833 170.983 161.387 169.901 162.221L164.729 166.199L133.26 125.307H133.263Z" fill="#C5F250"/>
<path d="M97.8437 93.6077C98.7287 94.7566 98.5127 96.4036 97.3637 97.2885C96.2148 98.1735 94.5678 97.9575 93.6829 96.8085C92.7979 95.6596 93.0139 94.0127 94.1629 93.1277C95.3118 92.2428 96.9587 92.4587 97.8437 93.6077Z" fill="#121212"/>
<path d="M171.763 169.681L169.574 166.838C170.128 165.986 170.119 164.843 169.466 163.991L136.428 121.057C135.6 119.98 134.052 119.779 132.975 120.607L129.219 123.495L125.01 118.027C124.303 117.109 122.986 116.935 122.065 117.643C121.147 118.351 120.973 119.668 121.681 120.589L125.889 126.057L121.897 129.129C120.82 129.957 120.619 131.505 121.447 132.582L154.484 175.516C155.312 176.593 156.86 176.794 157.937 175.966L167.993 168.229L170.095 170.962L171.76 169.681H171.763Z" fill="white"/>
<path d="M160.567 176.956C160.856 174.738 159.292 172.706 157.074 172.417C154.856 172.128 152.824 173.692 152.535 175.91C152.246 178.127 153.81 180.16 156.028 180.448C158.246 180.737 160.278 179.173 160.567 176.956Z" fill="#C5F250"/>
<path d="M158.573 174.88C159.431 175.996 159.224 177.598 158.108 178.456C156.992 179.314 155.39 179.107 154.532 177.991C153.674 176.875 153.881 175.273 154.997 174.415C156.113 173.557 157.715 173.764 158.573 174.88Z" fill="#121212"/>
<path d="M157.562 175.66C157.991 176.218 157.886 177.019 157.328 177.448C156.77 177.877 155.969 177.772 155.54 177.214C155.111 176.656 155.216 175.855 155.774 175.426C156.332 174.997 157.133 175.102 157.562 175.66Z" fill="#C5F250"/>
<path d="M128.271 124.23L127.083 125.145L163.124 171.98L164.313 171.065L128.271 124.23Z" fill="#C5F250"/>
<path d="M201.591 180.1H0V181H201.591V180.1Z" fill="#C5F250"/>
<path d="M70.9181 37.0067L70.0723 37.3142L72.4719 43.9142L73.3177 43.6067L70.9181 37.0067Z" fill="#121212"/>
<path d="M81.7303 32.5396L80.8619 32.7759L82.6867 39.4828L83.5551 39.2465L81.7303 32.5396Z" fill="#121212"/>
<path d="M62.6972 29.0569L53.9976 40.4564L59.9973 49.756L64.4971 32.6567L62.6972 29.0569Z" fill="#C5F250"/>
<path d="M57.8254 46.1622C57.7534 39.1035 61.7373 29.3 61.9082 28.886L62.7422 29.228C62.7002 29.327 58.6564 39.2805 58.7254 46.1532L57.8254 46.1622Z" fill="#121212"/>
</g>
<defs>
<clipPath id="clip0_493_73">
<rect width="201.591" height="181" fill="white"/>
</clipPath>
</defs>
</svg>
