<svg width="13" height="13" viewBox="0 0 13 13" fill="none" xmlns="http://www.w3.org/2000/svg">
<path d="M12.16 5.02097H3.2V3.19755C3.2 2.56785 3.63392 1.983 4.26304 1.88068C4.4468 1.84982 4.63517 1.85888 4.81502 1.90723C4.99487 1.95558 5.16187 2.04206 5.30438 2.16063C5.44689 2.2792 5.56149 2.42702 5.64017 2.59378C5.71886 2.76054 5.75976 2.94223 5.76 3.12618H7.04C7.03969 2.77331 6.96453 2.42441 6.81937 2.10193C6.6742 1.77944 6.46223 1.49052 6.19711 1.25375C5.93199 1.01697 5.61958 0.83759 5.27997 0.727139C4.94037 0.616689 4.5811 0.577617 4.22528 0.612437C2.89472 0.740019 1.92 1.91921 1.92 3.23861V5.02097H0.64C0.470261 5.02097 0.307475 5.08751 0.187452 5.20596C0.0674284 5.3244 0 5.48505 0 5.65256V6.91575C0 8.56168 1.07136 9.96193 2.56 10.4843V12.6001H3.84V10.7053H8.96V12.6001H10.24V10.4843C11.7286 9.96193 12.8 8.56168 12.8 6.91575V5.65256C12.8 5.48505 12.7326 5.3244 12.6125 5.20596C12.4925 5.08751 12.3297 5.02097 12.16 5.02097Z" fill="#79838D"/>
</svg>
