<svg width="17" height="13" viewBox="0 0 17 13" fill="none" xmlns="http://www.w3.org/2000/svg">
<path d="M15.12 4.88581V2.31438C15.12 1.37153 14.364 0.600098 13.44 0.600098H3.36C2.436 0.600098 1.68 1.37153 1.68 2.31438V4.88581C0.756 4.88581 0 5.65724 0 6.6001V10.8858H1.1172L1.5456 12.1972C1.6296 12.4372 1.848 12.6001 2.1 12.6001C2.22194 12.5999 2.3408 12.561 2.44013 12.4888C2.53945 12.4167 2.61433 12.3148 2.6544 12.1972L3.0828 10.8858H13.7256L14.154 12.1972C14.2296 12.4372 14.448 12.6001 14.7 12.6001C14.8219 12.5999 14.9408 12.561 15.0401 12.4888C15.1395 12.4167 15.2143 12.3148 15.2544 12.1972L15.6828 10.8858H16.8V6.6001C16.8 5.65724 16.044 4.88581 15.12 4.88581ZM7.56 4.88581H3.36V3.17153C3.36 2.7001 3.738 2.31438 4.2 2.31438H7.56V4.88581ZM13.44 4.88581H9.24V2.31438H12.6C13.062 2.31438 13.44 2.7001 13.44 3.17153V4.88581Z" fill="#79838D"/>
</svg>
