<svg width="11" height="13" viewBox="0 0 11 13" fill="none" xmlns="http://www.w3.org/2000/svg">
<path d="M6.40194 12.4218C7.91254 11.1055 10.6001 8.41628 10.6001 5.94847C10.6001 4.58302 10.0522 3.2735 9.07703 2.30799C8.10184 1.34247 6.7792 0.800049 5.40007 0.800049C4.02095 0.800049 2.69831 1.34247 1.72312 2.30799C0.747929 3.2735 0.200073 4.58302 0.200073 5.94847C0.200073 8.41628 2.88674 11.1055 4.39821 12.4218C4.6739 12.6654 5.03053 12.8 5.40007 12.8C5.76962 12.8 6.12624 12.6654 6.40194 12.4218ZM3.66674 5.94847C3.66674 5.49332 3.84936 5.05681 4.17442 4.73498C4.49948 4.41314 4.94036 4.23233 5.40007 4.23233C5.85978 4.23233 6.30066 4.41314 6.62572 4.73498C6.95079 5.05681 7.13341 5.49332 7.13341 5.94847C7.13341 6.40362 6.95079 6.84013 6.62572 7.16196C6.30066 7.4838 5.85978 7.66461 5.40007 7.66461C4.94036 7.66461 4.49948 7.4838 4.17442 7.16196C3.84936 6.84013 3.66674 6.40362 3.66674 5.94847Z" fill="#79838D"/>
</svg>
