<svg width="20" height="20" viewBox="0 0 20 20" fill="none" xmlns="http://www.w3.org/2000/svg">
<path d="M13.6001 11.4599C13.6001 11.9799 13.5034 12.4666 13.3101 12.9199C13.1167 13.3733 12.8501 13.7699 12.5101 14.1099C12.1701 14.4499 11.7734 14.7166 11.3201 14.9099C10.8667 15.1033 10.3801 15.1999 9.86006 15.1999C9.34006 15.1999 8.85339 15.1033 8.40006 14.9099C7.94672 14.7166 7.55006 14.4499 7.21006 14.1099C6.87006 13.7699 6.60339 13.3733 6.41006 12.9199C6.21673 12.4666 6.12006 11.9799 6.12006 11.4599C6.12006 10.9399 6.21673 10.4533 6.41006 9.99994C6.60339 9.54661 6.87006 9.14994 7.21006 8.80994C7.55006 8.46994 7.94672 8.20327 8.40006 8.00994C8.85339 7.81661 9.34006 7.71994 9.86006 7.71994C10.3801 7.71994 10.8667 7.81661 11.3201 8.00994C11.7734 8.20327 12.1701 8.46994 12.5101 8.80994C12.8501 9.14994 13.1167 9.54661 13.3101 9.99994C13.5034 10.4533 13.6001 10.9399 13.6001 11.4599ZM15.0401 1.93994C15.6134 1.93994 16.0301 2.10661 16.2901 2.43994C16.5501 2.77327 16.6801 3.17327 16.6801 3.63994V16.4799C16.6801 16.9466 16.5134 17.3466 16.1801 17.6799C15.8467 18.0133 15.4267 18.1799 14.9201 18.1799H4.80006C4.28006 18.1799 3.86006 18.0133 3.54006 17.6799C3.22006 17.3466 3.06006 16.9466 3.06006 16.4799V3.63994C3.06006 3.17327 3.20673 2.77661 3.50006 2.44994C3.79339 2.12327 4.19339 1.95994 4.70006 1.95994L15.0401 1.93994ZM4.40006 4.27994C4.40006 4.42661 4.45006 4.56327 4.55006 4.68994C4.65006 4.81661 4.81339 4.87994 5.04006 4.87994H6.56006C6.78673 4.87994 6.95339 4.80328 7.06006 4.64994C7.16673 4.49661 7.22006 4.34661 7.22006 4.19994V3.89994C7.22006 3.75327 7.16006 3.61994 7.04006 3.49994C6.92006 3.37994 6.75339 3.31994 6.54006 3.31994H5.08006C4.85339 3.31994 4.68339 3.38327 4.57006 3.50994C4.45673 3.63661 4.40006 3.77327 4.40006 3.91994V4.27994ZM9.86006 16.4599C10.5534 16.4599 11.2034 16.3299 11.8101 16.0699C12.4167 15.8099 12.9467 15.4533 13.4001 14.9999C13.8534 14.5466 14.2101 14.0166 14.4701 13.4099C14.7301 12.8033 14.8601 12.1533 14.8601 11.4599C14.8601 10.7799 14.7301 10.1366 14.4701 9.52994C14.2101 8.92327 13.8534 8.39327 13.4001 7.93994C12.9467 7.48661 12.4167 7.12994 11.8101 6.86994C11.2034 6.60994 10.5534 6.47994 9.86006 6.47994C9.18006 6.47994 8.53673 6.60994 7.93006 6.86994C7.32339 7.12994 6.79339 7.48661 6.34006 7.93994C5.88673 8.39327 5.53006 8.92327 5.27006 9.52994C5.01006 10.1366 4.88006 10.7799 4.88006 11.4599C4.88006 12.1533 5.01006 12.8033 5.27006 13.4099C5.53006 14.0166 5.88673 14.5466 6.34006 14.9999C6.79339 15.4533 7.32339 15.8099 7.93006 16.0699C8.53673 16.3299 9.18006 16.4599 9.86006 16.4599Z" fill="#79838D"/>
</svg>
