<svg width="1440" height="801" viewBox="0 0 1440 801" fill="none" xmlns="http://www.w3.org/2000/svg">
<g clip-path="url(#clip0_611_68)">
<path d="M334.304 6.26233C334.304 3.55082 332.106 1.3551 329.396 1.3551C326.687 1.3551 324.487 3.55082 324.487 6.26233C324.487 6.92247 324.619 7.55421 324.856 8.12916C324.955 8.36814 325.074 8.59528 325.208 8.81532L329.394 16.9712L333.582 8.81296C333.714 8.59528 333.833 8.3705 333.932 8.13153C334.169 7.55657 334.301 6.9272 334.301 6.2647L334.304 6.26233ZM329.396 8.83899C327.958 8.83899 326.794 7.67488 326.794 6.23631C326.794 4.79774 327.958 3.63363 329.396 3.63363C330.835 3.63363 331.999 4.79774 331.999 6.23631C331.999 7.67488 330.835 8.83899 329.396 8.83899Z" fill="#C5F250"/>
<path d="M363.879 127.261L364.353 135.543H370.504L370.978 127.261H363.879Z" fill="white"/>
<path d="M370.84 135.897H364.019L363.506 126.906H371.356L370.843 135.897H370.84ZM364.689 135.187H370.171L370.604 127.615H364.258L364.691 135.187H364.689Z" fill="#121212"/>
<path d="M373.701 21.6164L372.819 17.438C372.819 17.438 366.246 21.4958 367.062 6.1589L377.506 3.95135L380.92 20.0903L373.703 21.6164H373.701Z" fill="white"/>
<path d="M373.429 22.0371L372.568 17.9604C371.922 18.2325 370.665 18.5732 369.442 17.8492C367.284 16.5692 366.364 12.6296 366.709 6.14188L366.724 5.86978L377.78 3.5321L381.341 20.3667L373.431 22.0395L373.429 22.0371ZM373.062 16.872L373.976 21.1948L380.496 19.8154L377.231 4.36969L367.403 6.44947C367.041 13.9641 368.503 16.465 369.802 17.2364C371.148 18.0338 372.617 17.1465 372.632 17.137L373.06 16.872H373.062Z" fill="#121212"/>
<path d="M407.692 123.201L414.568 127.841L418.294 122.946L411.991 117.553L407.692 123.201Z" fill="white"/>
<path d="M414.648 128.321L407.183 123.286L411.937 117.039L418.779 122.893L414.648 128.321ZM408.203 123.115L414.49 127.355L417.809 122.992L412.046 118.064L408.203 123.115Z" fill="#121212"/>
<path d="M373.808 7.84149C373.794 7.88851 373.781 7.93228 373.771 7.97187L373.512 8.02664L373.012 6.45336L372.921 6.16682L372.627 6.22922C371.979 6.36653 370.971 6.51056 370 6.60692C369.021 6.70421 368.121 6.74849 367.675 6.69955L367.675 6.69955C366.613 6.58302 365.973 6.16096 365.582 5.62221C365.182 5.0713 365.016 4.35961 364.985 3.62509C364.954 2.89347 365.06 2.16954 365.175 1.62353C365.207 1.47199 365.24 1.33503 365.27 1.21643C365.712 1.51074 366.267 1.65143 366.854 1.70069C367.656 1.7679 368.578 1.66998 369.498 1.50633C370.421 1.3422 371.363 1.10811 372.208 0.893871C372.274 0.877193 372.339 0.860657 372.404 0.844296C373.176 0.648456 373.848 0.477892 374.356 0.393765L374.356 0.393745C375.087 0.272491 375.682 0.335741 376.169 0.522588C376.656 0.709326 377.055 1.02726 377.384 1.44668C378.049 2.29549 378.414 3.54645 378.592 4.8804C378.768 6.20585 378.755 7.56937 378.696 8.60621C378.667 9.12353 378.626 9.55706 378.593 9.86069C378.582 9.9622 378.572 10.0491 378.563 10.1198C378.038 10.2303 377.619 10.068 377.312 9.85909C377.138 9.74015 377.001 9.60693 376.909 9.50297C376.894 9.4868 376.881 9.47142 376.869 9.45703C376.888 9.3939 376.911 9.31608 376.934 9.22689C376.998 8.9844 377.067 8.64985 377.086 8.29393C377.106 7.94175 377.077 7.54217 376.922 7.18616C376.76 6.81681 376.467 6.50716 375.996 6.35615C375.546 6.21185 375.152 6.25325 374.824 6.42274C374.507 6.58661 374.283 6.85407 374.127 7.11127C373.971 7.37023 373.87 7.64056 373.808 7.84149Z" fill="#121212" stroke="white" stroke-width="0.663997"/>
<path d="M334.129 20.1086C334.453 19.6496 335.089 19.5408 335.548 19.8649L346.229 27.4245C346.688 27.7487 346.797 28.3852 346.472 28.8442C346.148 29.3032 345.512 29.412 345.053 29.0879L334.372 21.5283C333.913 21.2041 333.804 20.5677 334.129 20.1086Z" fill="#C5F250"/>
<path d="M370.031 26.4674L362.223 35.695L349.447 28.7151L347.554 23.8647H342.822C342.822 23.8647 342.585 25.9941 345.661 26.2308L345.897 29.425L344.005 28.2419L345.188 26.8223C345.188 26.8223 342.348 23.983 339.272 24.9294C339.272 24.9294 339.746 27.5321 340.929 29.1883C340.929 29.1883 343.058 31.6727 344.951 32.6191L347.79 33.8022L363.406 46.3424L375.947 35.695L370.031 26.4674Z" fill="white"/>
<path d="M363.413 46.7999L347.608 34.1083L344.792 32.9347C342.857 31.967 340.749 29.5205 340.659 29.4164L340.64 29.3927C339.424 27.6915 338.944 25.1007 338.925 24.9918L338.868 24.6819L339.168 24.5896C340.41 24.2087 341.603 24.3909 342.609 24.7694C342.424 24.2655 342.467 23.849 342.469 23.8254L342.504 23.5107H347.797L349.73 28.4676L362.14 35.2464L370.072 25.872L376.413 35.7646L363.413 46.8023V46.7999ZM345.1 32.2935L347.975 33.4908L363.402 45.8795L375.483 35.6226L369.993 27.0598L362.308 36.1408L349.165 28.9597L347.312 24.2158H343.193C343.228 24.4334 343.323 24.7316 343.562 25.0131C343.979 25.5076 344.693 25.7963 345.689 25.872L345.994 25.8957L346.304 30.0931L343.472 28.3233L344.698 26.8516C344.007 26.2601 341.918 24.6914 339.691 25.1811C339.857 25.9099 340.332 27.727 341.21 28.9645C341.369 29.1467 343.363 31.4181 345.1 32.2912V32.2935ZM344.539 28.1529L345.493 28.7492L345.374 27.1497L344.539 28.1529Z" fill="#121212"/>
<path d="M372.042 58.2898L377.129 94.8456L407.297 127.616L413.448 117.678L389.906 89.8768C389.906 89.8768 390.971 68.7005 389.788 58.2898H372.042Z" fill="white"/>
<path d="M407.354 128.2L376.793 95.0042L376.779 94.8953L371.635 57.9349H390.105L390.14 58.2496C391.262 68.128 390.356 87.8894 390.268 89.7539L413.886 117.645L407.354 128.2ZM377.468 94.6871L407.242 127.031L413.013 117.711L389.547 89.9999L389.554 89.8603C389.563 89.6521 390.583 69.0176 389.471 58.6471H372.452L377.468 94.6895V94.6871Z" fill="#121212"/>
<path d="M369.776 56.5151L362.63 86.8008L361.277 127.97H374.818L376.443 88.4571L391.799 56.5151H369.776Z" fill="white"/>
<path d="M375.159 128.326H360.91L362.285 86.7214L369.494 56.1612H392.365L376.796 88.5456L375.161 128.326H375.159ZM361.644 127.617H374.477L376.091 88.3705L376.122 88.3043L391.234 56.871H370.055L362.983 86.8491L361.641 127.617H361.644Z" fill="#121212"/>
<path d="M352.996 142.404C352.996 142.404 352.049 140.748 353.942 139.565C353.942 139.565 362.223 136.252 364.353 133.768C364.353 133.768 366.565 136.725 370.545 133.768L372.158 142.404H352.993H352.996Z" fill="white"/>
<path d="M372.589 142.758H352.79L352.688 142.578C352.302 141.904 352.028 140.34 353.755 139.261L353.812 139.233C353.895 139.199 362.036 135.925 364.085 133.535L364.374 133.199L364.639 133.554C364.722 133.66 366.702 136.183 370.336 133.481L370.793 133.142L372.591 142.758H372.589ZM353.223 142.048H371.735L370.299 134.373C367.159 136.431 365.079 134.974 364.355 134.285C361.92 136.706 354.718 139.635 354.105 139.881C352.872 140.666 353.066 141.641 353.223 142.048Z" fill="#121212"/>
<path d="M413.151 141.033C413.151 141.033 411.26 140.782 411.464 138.561C411.464 138.561 413.844 129.965 413.155 126.766C413.155 126.766 416.849 126.797 416.906 121.837L424.756 125.782L413.151 141.033Z" fill="white"/>
<path d="M413.309 141.413L413.106 141.387C412.334 141.285 410.926 140.557 411.113 138.529L411.125 138.467C411.149 138.382 413.472 129.919 412.812 126.841L412.72 126.408L413.162 126.412C413.302 126.412 416.503 126.358 416.555 121.834L416.562 121.266L425.303 125.658L413.311 141.413H413.309ZM411.816 138.626C411.695 140.083 412.587 140.516 413.006 140.64L424.217 125.908L417.239 122.402C416.976 126.147 414.556 126.921 413.569 127.08C414.021 130.484 411.989 137.99 411.814 138.624L411.816 138.626Z" fill="#121212"/>
<path d="M380.695 15.7009L372.182 20.6649C372.182 20.6649 369.009 28.4847 368.259 31.5535C366.847 37.3173 370.682 53.2267 367.859 61.366L394.049 61.1389C394.049 61.1389 388.657 30.3942 386.859 25.1935C385.061 19.9929 380.695 15.6985 380.695 15.6985V15.7009Z" fill="#C5F250"/>
<path d="M367.746 61.9135L390.619 61.5192" stroke="black" stroke-width="0.788725"/>
<path d="M379.614 34.6287C379.614 34.6287 384.464 32.8542 387.422 30.3698L389.788 41.9636L396.413 65.6243L400.672 72.2493C400.672 72.2493 400.435 75.3252 399.726 76.5082H399.016L398.779 73.1957L395.703 71.7761C395.703 71.7761 397.833 76.2716 396.65 78.4011L393.101 72.7225L391.918 65.1511L379.614 34.6287Z" fill="white"/>
<path d="M396.669 79.0997L392.762 72.8486L391.574 65.2464L379.148 34.4212L379.493 34.2958C379.541 34.2792 384.32 32.5118 387.195 30.0984L387.651 29.7151L390.133 41.8814L396.74 65.4782L401.034 72.1577L401.025 72.276C401.015 72.4037 400.774 75.4489 400.028 76.6911L399.924 76.8638H398.682L398.436 73.4306L396.385 72.4842C396.955 73.9393 397.894 76.8803 396.955 78.5745L396.661 79.0997H396.669ZM393.441 72.5954L396.569 77.5996C396.953 75.8393 395.888 72.9929 395.384 71.9282L394.965 71.0433L399.12 72.9598L399.347 76.1516H399.515C399.979 75.191 400.234 73.2011 400.31 72.3375L396.087 65.7693L396.072 65.7172L389.44 42.0329L387.19 31.0093C384.658 32.9637 381.18 34.3999 380.078 34.8305L392.261 65.0547L392.268 65.0949L393.439 72.5954H393.441Z" fill="#121212"/>
<path d="M397.893 74.5912L396.956 75.3127L419.611 104.752L420.548 104.031L397.893 74.5912Z" fill="#C5F250"/>
<path d="M427.108 98.8325L431.187 95.6951C432.041 95.0373 433.267 95.1982 433.925 96.0523L456.362 125.209C457.02 126.064 456.859 127.289 456.005 127.947L451.926 131.084L427.106 98.8325H427.108Z" fill="#C5F250"/>
<path d="M399.172 73.8307C399.87 74.7369 399.699 76.0359 398.793 76.7339C397.887 77.4319 396.588 77.2615 395.89 76.3553C395.192 75.4491 395.362 74.1501 396.269 73.4522C397.175 72.7542 398.474 72.9245 399.172 73.8307Z" fill="#121212"/>
<path d="M457.474 133.831L455.747 131.588C456.185 130.916 456.177 130.015 455.662 129.343L429.604 95.4797C428.951 94.6303 427.73 94.4718 426.881 95.1248L423.918 97.4033L420.599 93.09C420.04 92.3659 419.002 92.2287 418.275 92.7871C417.551 93.3455 417.414 94.3842 417.973 95.1106L421.292 99.4239L418.143 101.847C417.293 102.5 417.135 103.721 417.788 104.57L443.845 138.433C444.499 139.283 445.719 139.441 446.569 138.788L454.5 132.686L456.159 134.842L457.472 133.831H457.474Z" fill="white"/>
<path d="M448.643 139.569C448.871 137.819 447.638 136.216 445.888 135.989C444.139 135.761 442.536 136.994 442.308 138.744C442.081 140.493 443.314 142.096 445.063 142.324C446.813 142.551 448.415 141.318 448.643 139.569Z" fill="#C5F250"/>
<path d="M447.071 137.932C447.747 138.812 447.584 140.076 446.704 140.753C445.824 141.429 444.56 141.266 443.883 140.386C443.207 139.506 443.37 138.242 444.25 137.566C445.13 136.889 446.394 137.052 447.071 137.932Z" fill="#121212"/>
<path d="M446.273 138.547C446.611 138.987 446.529 139.619 446.089 139.957C445.649 140.296 445.017 140.213 444.678 139.773C444.34 139.333 444.423 138.701 444.863 138.363C445.303 138.024 445.935 138.107 446.273 138.547Z" fill="#C5F250"/>
<path d="M423.171 97.9836L422.233 98.7051L450.66 135.645L451.598 134.923L423.171 97.9836Z" fill="#C5F250"/>
<path d="M481 142.049H322V142.759H481V142.049Z" fill="#C5F250"/>
<path d="M377.935 29.1879L377.268 29.4304L379.16 34.636L379.828 34.3935L377.935 29.1879Z" fill="#121212"/>
<path d="M386.463 25.6642L385.778 25.8505L387.217 31.1404L387.902 30.9541L386.463 25.6642Z" fill="#121212"/>
<path d="M371.451 22.9175L364.589 31.9086L369.321 39.2434L372.87 25.7568L371.451 22.9175Z" fill="#C5F250"/>
<path d="M367.608 36.409C367.552 30.8416 370.694 23.1093 370.829 22.7828L371.486 23.0525C371.453 23.1306 368.264 30.9812 368.318 36.4019L367.608 36.409Z" fill="#121212"/>
</g>
<mask id="path-37-inside-1_611_68" fill="white">
<path fill-rule="evenodd" clip-rule="evenodd" d="M271.489 48.9227C267.69 44.5267 262.167 42 256.357 42H20C8.95431 42 0 50.9543 0 62V781C0 792.046 8.95432 801 20 801H1420C1431.05 801 1440 792.046 1440 781V132C1440 120.954 1431.05 112 1420 112H335.15C329.339 112 323.816 109.473 320.017 105.077L271.489 48.9227Z"/>
</mask>
<path fill-rule="evenodd" clip-rule="evenodd" d="M271.489 48.9227C267.69 44.5267 262.167 42 256.357 42H20C8.95431 42 0 50.9543 0 62V781C0 792.046 8.95432 801 20 801H1420C1431.05 801 1440 792.046 1440 781V132C1440 120.954 1431.05 112 1420 112H335.15C329.339 112 323.816 109.473 320.017 105.077L271.489 48.9227Z" fill="#1D1D21"/>
<path d="M320.017 105.077L318.504 106.385L320.017 105.077ZM271.489 48.9227L273.002 47.615L271.489 48.9227ZM20 44H256.357V40H20V44ZM2 781V62H-2V781H2ZM1420 799H20V803H1420V799ZM1438 132V781H1442V132H1438ZM1420 110H335.15V114H1420V110ZM321.531 103.77L273.002 47.615L269.976 50.2305L318.504 106.385L321.531 103.77ZM335.15 110C329.921 110 324.95 107.726 321.531 103.77L318.504 106.385C322.683 111.221 328.758 114 335.15 114V110ZM1442 132C1442 119.85 1432.15 110 1420 110V114C1429.94 114 1438 122.059 1438 132H1442ZM1420 803C1432.15 803 1442 793.15 1442 781H1438C1438 790.941 1429.94 799 1420 799V803ZM-2 781C-2 793.15 7.84975 803 20 803V799C10.0589 799 2 790.941 2 781H-2ZM256.357 44C261.586 44 266.556 46.274 269.976 50.2305L273.002 47.615C268.823 42.7793 262.748 40 256.357 40V44ZM20 40C7.84974 40 -2 49.8497 -2 62H2C2 52.0589 10.0589 44 20 44V40Z" fill="#C5F250" mask="url(#path-37-inside-1_611_68)"/>
<defs>
<clipPath id="clip0_611_68">
<rect width="159" height="142.759" fill="white" transform="translate(322)"/>
</clipPath>
</defs>
</svg>
