<svg width="18" height="13" viewBox="0 0 18 13" fill="none" xmlns="http://www.w3.org/2000/svg">
<path d="M15.7497 9.45389V7.09067H2.25004V9.45389C1.95191 9.45116 1.65722 9.38786 1.3828 9.26762C1.10838 9.14738 0.8596 8.97254 0.650671 8.75309C0.441742 8.53364 0.276753 8.27389 0.165126 7.98865C0.0534991 7.70341 -0.00257997 7.39828 9.11192e-05 7.09067V2.36321C-0.00517048 1.74203 0.228895 1.14411 0.650818 0.700946C1.07274 0.257782 1.64798 0.00565289 2.25004 0H15.7497C16.0479 0.0026978 16.3426 0.0659674 16.617 0.186196C16.8915 0.306424 17.1403 0.481255 17.3492 0.700706C17.5582 0.920156 17.7232 1.17993 17.8348 1.46518C17.9465 1.75044 18.0026 2.05559 17.9999 2.36321V7.09067C18.0052 7.71186 17.7711 8.30978 17.3492 8.75294C16.9273 9.19611 16.352 9.44824 15.75 9.45389H15.7497ZM14.6247 9.45389H3.37501V8.27228H14.6247V9.45389ZM5.62496 13H4.49998L3.37501 10.6368H4.49998L5.62496 13ZM6.74993 10.6368L7.8749 13H6.74993L5.62496 10.6368H6.74993ZM8.99988 10.6368L10.1248 13H8.99988L7.8749 10.6368H8.99988ZM11.2498 10.6368L12.3748 13H11.2498L10.1248 10.6368H11.2498ZM13.4998 10.6368L14.6247 13H13.4998L12.3748 10.6368H13.4998Z" fill="white"/>
</svg>
