<svg width="17" height="16" viewBox="0 0 17 16" fill="none" xmlns="http://www.w3.org/2000/svg">
<path d="M16.15 5.89449H4.25V3.46327C4.25 2.62367 4.8263 1.84387 5.66185 1.70744C5.90591 1.6663 6.15609 1.67838 6.39495 1.74285C6.63381 1.80731 6.85561 1.92261 7.04488 2.08071C7.23415 2.23881 7.38635 2.4359 7.49086 2.65824C7.59537 2.88059 7.64968 3.12284 7.65 3.36811H9.35C9.34959 2.89762 9.24977 2.43242 9.05697 2.00244C8.86417 1.57246 8.58266 1.18723 8.23054 0.871533C7.87842 0.555834 7.4635 0.316657 7.01247 0.169389C6.56143 0.0221217 6.08428 -0.0299745 5.6117 0.0164523C3.84455 0.186562 2.55 1.75881 2.55 3.51801V5.89449H0.85C0.624566 5.89449 0.408365 5.98321 0.248959 6.14114C0.0895533 6.29907 0 6.51327 0 6.73662V8.42087C0 10.6154 1.4229 12.4824 3.4 13.1789V16H5.1V13.4736H11.9V16H13.6V13.1789C15.5771 12.4824 17 10.6154 17 8.42087V6.73662C17 6.51327 16.9104 6.29907 16.751 6.14114C16.5916 5.98321 16.3754 5.89449 16.15 5.89449Z" fill="white"/>
</svg>
