<svg width="411" height="58" viewBox="0 0 411 58" fill="none" xmlns="http://www.w3.org/2000/svg">
<rect x="0.5" y="0.5" width="410" height="57" rx="15.2993" fill="#1D1D21" stroke="black"/>
<path d="M385.947 41.3201H366.186C364.688 41.3201 363.47 40.1021 363.47 38.6111V21.5661C363.47 20.0681 364.688 18.8501 366.186 18.8501H385.947C387.438 18.8501 388.656 20.0681 388.656 21.5591V38.6041C388.656 40.1021 387.438 41.3201 385.947 41.3201ZM366.186 20.5301C365.619 20.5301 365.15 20.9921 365.15 21.5661V38.6111C365.15 39.1781 365.612 39.6401 366.179 39.6401H385.94C386.507 39.6401 386.969 39.1781 386.969 38.6111V21.5661C386.969 20.9991 386.507 20.5371 385.94 20.5371H366.186V20.5301Z" fill="white"/>
<path d="M387.795 27.4461H364.52C364.058 27.4461 363.68 27.0681 363.68 26.6061C363.68 26.1441 364.058 25.7661 364.52 25.7661H387.795C388.257 25.7661 388.635 26.1441 388.635 26.6061C388.635 27.0681 388.257 27.4461 387.795 27.4461ZM370.393 22.9311C369.931 22.9311 369.553 22.5601 369.553 22.0981L369.518 17.1771C369.518 16.7151 369.889 16.3371 370.351 16.3301C370.813 16.3301 371.191 16.7011 371.198 17.1631L371.233 22.0841C371.233 22.5461 370.862 22.9241 370.393 22.9311ZM381.6 22.9311C381.138 22.9311 380.76 22.5601 380.76 22.0981L380.725 17.1771C380.725 16.7151 381.096 16.3371 381.558 16.3301H381.565C382.027 16.3301 382.405 16.7011 382.405 17.1631L382.44 22.0841C382.447 22.5461 382.076 22.9241 381.6 22.9311C381.607 22.9311 381.607 22.9311 381.6 22.9311ZM371.317 31.8701H368.447C367.985 31.8701 367.607 31.4921 367.607 31.0301C367.607 30.5681 367.985 30.1901 368.447 30.1901H371.317C371.779 30.1901 372.157 30.5681 372.157 31.0301C372.157 31.4921 371.779 31.8701 371.317 31.8701ZM371.317 36.2101H368.447C367.985 36.2101 367.607 35.8321 367.607 35.3701C367.607 34.9081 367.985 34.5301 368.447 34.5301H371.317C371.779 34.5301 372.157 34.9081 372.157 35.3701C372.157 35.8321 371.779 36.2101 371.317 36.2101ZM377.26 31.8771H374.39C373.928 31.8771 373.55 31.4991 373.55 31.0371C373.55 30.5751 373.928 30.1971 374.39 30.1971H377.26C377.722 30.1971 378.1 30.5751 378.1 31.0371C378.1 31.4991 377.722 31.8771 377.26 31.8771ZM377.26 36.2101H374.39C373.928 36.2101 373.55 35.8321 373.55 35.3701C373.55 34.9081 373.928 34.5301 374.39 34.5301H377.26C377.722 34.5301 378.1 34.9081 378.1 35.3701C378.1 35.8321 377.722 36.2101 377.26 36.2101ZM383.518 31.8771H380.648C380.186 31.8771 379.808 31.4991 379.808 31.0371C379.808 30.5751 380.186 30.1971 380.648 30.1971H383.518C383.98 30.1971 384.358 30.5751 384.358 31.0371C384.358 31.4991 383.98 31.8771 383.518 31.8771ZM383.518 36.2101H380.648C380.186 36.2101 379.808 35.8321 379.808 35.3701C379.808 34.9081 380.186 34.5301 380.648 34.5301H383.518C383.98 34.5301 384.358 34.9081 384.358 35.3701C384.358 35.8321 383.98 36.2101 383.518 36.2101Z" fill="white"/>
<path d="M33.4188 36.14C32.4454 36.14 31.5654 35.9733 30.7788 35.64C30.0054 35.3067 29.3921 34.8267 28.9388 34.2C28.4854 33.5733 28.2521 32.8333 28.2388 31.98H31.2388C31.2788 32.5533 31.4788 33.0067 31.8388 33.34C32.2121 33.6733 32.7188 33.84 33.3588 33.84C34.0121 33.84 34.5254 33.6867 34.8988 33.38C35.2721 33.06 35.4588 32.6467 35.4588 32.14C35.4588 31.7267 35.3321 31.3867 35.0788 31.12C34.8254 30.8533 34.5054 30.6467 34.1188 30.5C33.7454 30.34 33.2254 30.1667 32.5588 29.98C31.6521 29.7133 30.9121 29.4533 30.3388 29.2C29.7788 28.9333 29.2921 28.54 28.8788 28.02C28.4788 27.4867 28.2788 26.78 28.2788 25.9C28.2788 25.0733 28.4854 24.3533 28.8988 23.74C29.3121 23.1267 29.8921 22.66 30.6388 22.34C31.3854 22.0067 32.2388 21.84 33.1988 21.84C34.6388 21.84 35.8054 22.1933 36.6988 22.9C37.6054 23.5933 38.1054 24.5667 38.1988 25.82H35.1188C35.0921 25.34 34.8854 24.9467 34.4988 24.64C34.1254 24.32 33.6254 24.16 32.9988 24.16C32.4521 24.16 32.0121 24.3 31.6788 24.58C31.3588 24.86 31.1988 25.2667 31.1988 25.8C31.1988 26.1733 31.3188 26.4867 31.5588 26.74C31.8121 26.98 32.1188 27.18 32.4788 27.34C32.8521 27.4867 33.3721 27.66 34.0388 27.86C34.9454 28.1267 35.6854 28.3933 36.2588 28.66C36.8321 28.9267 37.3254 29.3267 37.7388 29.86C38.1521 30.3933 38.3588 31.0933 38.3588 31.96C38.3588 32.7067 38.1654 33.4 37.7787 34.04C37.3921 34.68 36.8254 35.1933 36.0788 35.58C35.3321 35.9533 34.4454 36.14 33.4188 36.14ZM44.0463 27.22V32.58C44.0463 32.9533 44.1329 33.2267 44.3063 33.4C44.4929 33.56 44.7996 33.64 45.2263 33.64H46.5263V36H44.7663C42.4063 36 41.2263 34.8533 41.2263 32.56V27.22H39.9063V24.92H41.2263V22.18H44.0463V24.92H46.5263V27.22H44.0463ZM47.8202 30.42C47.8202 29.3 48.0402 28.3067 48.4802 27.44C48.9335 26.5733 49.5402 25.9067 50.3002 25.44C51.0735 24.9733 51.9335 24.74 52.8802 24.74C53.7068 24.74 54.4268 24.9067 55.0402 25.24C55.6668 25.5733 56.1668 25.9933 56.5402 26.5V24.92H59.3602V36H56.5402V34.38C56.1802 34.9 55.6802 35.3333 55.0402 35.68C54.4135 36.0133 53.6868 36.18 52.8602 36.18C51.9268 36.18 51.0735 35.94 50.3002 35.46C49.5402 34.98 48.9335 34.3067 48.4802 33.44C48.0402 32.56 47.8202 31.5533 47.8202 30.42ZM56.5402 30.46C56.5402 29.78 56.4068 29.2 56.1402 28.72C55.8735 28.2267 55.5135 27.8533 55.0602 27.6C54.6068 27.3333 54.1202 27.2 53.6002 27.2C53.0802 27.2 52.6002 27.3267 52.1602 27.58C51.7202 27.8333 51.3602 28.2067 51.0802 28.7C50.8135 29.18 50.6802 29.7533 50.6802 30.42C50.6802 31.0867 50.8135 31.6733 51.0802 32.18C51.3602 32.6733 51.7202 33.0533 52.1602 33.32C52.6135 33.5867 53.0935 33.72 53.6002 33.72C54.1202 33.72 54.6068 33.5933 55.0602 33.34C55.5135 33.0733 55.8735 32.7 56.1402 32.22C56.4068 31.7267 56.5402 31.14 56.5402 30.46ZM64.8948 26.64C65.2548 26.0533 65.7215 25.5933 66.2948 25.26C66.8815 24.9267 67.5482 24.76 68.2948 24.76V27.7H67.5548C66.6748 27.7 66.0082 27.9067 65.5548 28.32C65.1148 28.7333 64.8948 29.4533 64.8948 30.48V36H62.0948V24.92H64.8948V26.64ZM73.4408 27.22V32.58C73.4408 32.9533 73.5274 33.2267 73.7008 33.4C73.8874 33.56 74.1941 33.64 74.6208 33.64H75.9208V36H74.1608C71.8008 36 70.6208 34.8533 70.6208 32.56V27.22H69.3008V24.92H70.6208V22.18H73.4408V24.92H75.9208V27.22H73.4408ZM81.9803 30.42C81.9803 29.3 82.2003 28.3067 82.6403 27.44C83.0936 26.5733 83.707 25.9067 84.4803 25.44C85.2536 24.9733 86.1136 24.74 87.0603 24.74C87.7803 24.74 88.467 24.9 89.1203 25.22C89.7736 25.5267 90.2936 25.94 90.6803 26.46V21.2H93.5203V36H90.6803V34.36C90.3336 34.9067 89.847 35.3467 89.2203 35.68C88.5936 36.0133 87.867 36.18 87.0403 36.18C86.107 36.18 85.2536 35.94 84.4803 35.46C83.707 34.98 83.0936 34.3067 82.6403 33.44C82.2003 32.56 81.9803 31.5533 81.9803 30.42ZM90.7003 30.46C90.7003 29.78 90.567 29.2 90.3003 28.72C90.0336 28.2267 89.6736 27.8533 89.2203 27.6C88.767 27.3333 88.2803 27.2 87.7603 27.2C87.2403 27.2 86.7603 27.3267 86.3203 27.58C85.8803 27.8333 85.5203 28.2067 85.2403 28.7C84.9736 29.18 84.8403 29.7533 84.8403 30.42C84.8403 31.0867 84.9736 31.6733 85.2403 32.18C85.5203 32.6733 85.8803 33.0533 86.3203 33.32C86.7736 33.5867 87.2536 33.72 87.7603 33.72C88.2803 33.72 88.767 33.5933 89.2203 33.34C89.6736 33.0733 90.0336 32.7 90.3003 32.22C90.567 31.7267 90.7003 31.14 90.7003 30.46ZM95.535 30.42C95.535 29.3 95.755 28.3067 96.195 27.44C96.6483 26.5733 97.255 25.9067 98.015 25.44C98.7883 24.9733 99.6483 24.74 100.595 24.74C101.422 24.74 102.142 24.9067 102.755 25.24C103.382 25.5733 103.882 25.9933 104.255 26.5V24.92H107.075V36H104.255V34.38C103.895 34.9 103.395 35.3333 102.755 35.68C102.128 36.0133 101.402 36.18 100.575 36.18C99.6417 36.18 98.7883 35.94 98.015 35.46C97.255 34.98 96.6483 34.3067 96.195 33.44C95.755 32.56 95.535 31.5533 95.535 30.42ZM104.255 30.46C104.255 29.78 104.122 29.2 103.855 28.72C103.588 28.2267 103.228 27.8533 102.775 27.6C102.322 27.3333 101.835 27.2 101.315 27.2C100.795 27.2 100.315 27.3267 99.875 27.58C99.435 27.8333 99.075 28.2067 98.795 28.7C98.5283 29.18 98.395 29.7533 98.395 30.42C98.395 31.0867 98.5283 31.6733 98.795 32.18C99.075 32.6733 99.435 33.0533 99.875 33.32C100.328 33.5867 100.808 33.72 101.315 33.72C101.835 33.72 102.322 33.5933 102.775 33.34C103.228 33.0733 103.588 32.7 103.855 32.22C104.122 31.7267 104.255 31.14 104.255 30.46ZM113.07 27.22V32.58C113.07 32.9533 113.156 33.2267 113.33 33.4C113.516 33.56 113.823 33.64 114.25 33.64H115.55V36H113.79C111.43 36 110.25 34.8533 110.25 32.56V27.22H108.93V24.92H110.25V22.18H113.07V24.92H115.55V27.22H113.07ZM127.864 30.22C127.864 30.62 127.837 30.98 127.784 31.3H119.684C119.75 32.1 120.03 32.7267 120.524 33.18C121.017 33.6333 121.624 33.86 122.344 33.86C123.384 33.86 124.124 33.4133 124.564 32.52H127.584C127.264 33.5867 126.65 34.4667 125.744 35.16C124.837 35.84 123.724 36.18 122.404 36.18C121.337 36.18 120.377 35.9467 119.524 35.48C118.684 35 118.024 34.3267 117.544 33.46C117.077 32.5933 116.844 31.5933 116.844 30.46C116.844 29.3133 117.077 28.3067 117.544 27.44C118.01 26.5733 118.664 25.9067 119.504 25.44C120.344 24.9733 121.31 24.74 122.404 24.74C123.457 24.74 124.397 24.9667 125.224 25.42C126.064 25.8733 126.71 26.52 127.164 27.36C127.63 28.1867 127.864 29.14 127.864 30.22ZM124.964 29.42C124.95 28.7 124.69 28.1267 124.184 27.7C123.677 27.26 123.057 27.04 122.324 27.04C121.63 27.04 121.044 27.2533 120.564 27.68C120.097 28.0933 119.81 28.6733 119.704 29.42H124.964ZM131.147 36.14C130.641 36.14 130.221 35.9867 129.887 35.68C129.567 35.36 129.407 34.9667 129.407 34.5C129.407 34.0333 129.567 33.6467 129.887 33.34C130.221 33.02 130.641 32.86 131.147 32.86C131.641 32.86 132.047 33.02 132.367 33.34C132.687 33.6467 132.847 34.0333 132.847 34.5C132.847 34.9667 132.687 35.36 132.367 35.68C132.047 35.9867 131.641 36.14 131.147 36.14ZM131.147 27.86C130.641 27.86 130.221 27.7067 129.887 27.4C129.567 27.08 129.407 26.6867 129.407 26.22C129.407 25.7533 129.567 25.3667 129.887 25.06C130.221 24.74 130.641 24.58 131.147 24.58C131.641 24.58 132.047 24.74 132.367 25.06C132.687 25.3667 132.847 25.7533 132.847 26.22C132.847 26.6867 132.687 27.08 132.367 27.4C132.047 27.7067 131.641 27.86 131.147 27.86Z" fill="white"/>
<path d="M158.411 32.84C159.691 31.7733 160.711 30.8867 161.471 30.18C162.231 29.46 162.864 28.7133 163.371 27.94C163.877 27.1667 164.131 26.4067 164.131 25.66C164.131 24.98 163.971 24.4467 163.651 24.06C163.331 23.6733 162.837 23.48 162.171 23.48C161.504 23.48 160.991 23.7067 160.631 24.16C160.271 24.6 160.084 25.2067 160.071 25.98H157.351C157.404 24.38 157.877 23.1667 158.771 22.34C159.677 21.5133 160.824 21.1 162.211 21.1C163.731 21.1 164.897 21.5067 165.711 22.32C166.524 23.12 166.931 24.18 166.931 25.5C166.931 26.54 166.651 27.5333 166.091 28.48C165.531 29.4267 164.891 30.2533 164.171 30.96C163.451 31.6533 162.511 32.4933 161.351 33.48H167.251V35.8H157.371V33.72L158.411 32.84ZM169.015 28.52C169.015 26.2133 169.428 24.4067 170.255 23.1C171.095 21.7933 172.482 21.14 174.415 21.14C176.348 21.14 177.728 21.7933 178.555 23.1C179.395 24.4067 179.815 26.2133 179.815 28.52C179.815 30.84 179.395 32.66 178.555 33.98C177.728 35.3 176.348 35.96 174.415 35.96C172.482 35.96 171.095 35.3 170.255 33.98C169.428 32.66 169.015 30.84 169.015 28.52ZM177.055 28.52C177.055 27.5333 176.988 26.7067 176.855 26.04C176.735 25.36 176.482 24.8067 176.095 24.38C175.722 23.9533 175.162 23.74 174.415 23.74C173.668 23.74 173.102 23.9533 172.715 24.38C172.342 24.8067 172.088 25.36 171.955 26.04C171.835 26.7067 171.775 27.5333 171.775 28.52C171.775 29.5333 171.835 30.3867 171.955 31.08C172.075 31.76 172.328 32.3133 172.715 32.74C173.102 33.1533 173.668 33.36 174.415 33.36C175.162 33.36 175.728 33.1533 176.115 32.74C176.502 32.3133 176.755 31.76 176.875 31.08C176.995 30.3867 177.055 29.5333 177.055 28.52ZM182.825 32.84C184.105 31.7733 185.125 30.8867 185.885 30.18C186.645 29.46 187.278 28.7133 187.785 27.94C188.291 27.1667 188.545 26.4067 188.545 25.66C188.545 24.98 188.385 24.4467 188.065 24.06C187.745 23.6733 187.251 23.48 186.585 23.48C185.918 23.48 185.405 23.7067 185.045 24.16C184.685 24.6 184.498 25.2067 184.485 25.98H181.765C181.818 24.38 182.291 23.1667 183.185 22.34C184.091 21.5133 185.238 21.1 186.625 21.1C188.145 21.1 189.311 21.5067 190.125 22.32C190.938 23.12 191.345 24.18 191.345 25.5C191.345 26.54 191.065 27.5333 190.505 28.48C189.945 29.4267 189.305 30.2533 188.585 30.96C187.865 31.6533 186.925 32.4933 185.765 33.48H191.665V35.8H181.785V33.72L182.825 32.84ZM193.309 33.16V30.96L199.849 21.6H203.109V30.72H204.869V33.16H203.109V36H200.309V33.16H193.309ZM200.489 24.6L196.389 30.72H200.489V24.6ZM220.257 27.68V30.04H211.777V27.68H220.257ZM230.283 28.28C228.95 27.5867 228.283 26.5133 228.283 25.06C228.283 24.34 228.463 23.6867 228.823 23.1C229.197 22.5 229.75 22.0267 230.483 21.68C231.23 21.32 232.137 21.14 233.203 21.14C234.27 21.14 235.17 21.32 235.903 21.68C236.65 22.0267 237.203 22.5 237.563 23.1C237.937 23.6867 238.123 24.34 238.123 25.06C238.123 25.7933 237.943 26.44 237.583 27C237.223 27.5467 236.743 27.9733 236.143 28.28C236.877 28.6 237.45 29.0667 237.863 29.68C238.277 30.2933 238.483 31.02 238.483 31.86C238.483 32.7667 238.25 33.56 237.783 34.24C237.33 34.9067 236.703 35.42 235.903 35.78C235.103 36.14 234.203 36.32 233.203 36.32C232.203 36.32 231.303 36.14 230.503 35.78C229.717 35.42 229.09 34.9067 228.623 34.24C228.17 33.56 227.943 32.7667 227.943 31.86C227.943 31.02 228.15 30.2933 228.563 29.68C228.977 29.0533 229.55 28.5867 230.283 28.28ZM235.403 25.46C235.403 24.8067 235.203 24.3 234.803 23.94C234.417 23.58 233.883 23.4 233.203 23.4C232.537 23.4 232.003 23.58 231.603 23.94C231.217 24.3 231.023 24.8133 231.023 25.48C231.023 26.08 231.223 26.56 231.623 26.92C232.037 27.28 232.563 27.46 233.203 27.46C233.843 27.46 234.37 27.28 234.783 26.92C235.197 26.5467 235.403 26.06 235.403 25.46ZM233.203 29.5C232.443 29.5 231.823 29.6933 231.343 30.08C230.877 30.4667 230.643 31.02 230.643 31.74C230.643 32.4067 230.87 32.9533 231.323 33.38C231.79 33.7933 232.417 34 233.203 34C233.99 34 234.61 33.7867 235.063 33.36C235.517 32.9333 235.743 32.3933 235.743 31.74C235.743 31.0333 235.51 30.4867 235.043 30.1C234.577 29.7 233.963 29.5 233.203 29.5ZM254.3 27.68V30.04H245.82V27.68H254.3ZM256.781 24V21.42H261.601V36H258.721V24H256.781ZM264.247 33.16V30.96L270.787 21.6H274.047V30.72H275.807V33.16H274.047V36H271.247V33.16H264.247ZM271.427 24.6L267.327 30.72H271.427V24.6Z" fill="white"/>
<line x1="342.5" y1="19" x2="342.5" y2="40" stroke="white"/>
</svg>
