<svg width="18" height="16" viewBox="0 0 18 16" fill="none" xmlns="http://www.w3.org/2000/svg">
<path d="M16.4593 3.96964C16.3742 3.53471 15.9866 3.21324 15.5327 3.21324H1.9552C1.50136 3.21324 1.1137 3.53471 1.0286 3.96964L0.234375 7.94078V8.88629C0.234375 9.40632 0.659854 9.8318 1.17988 9.8318V14.5593C1.17988 15.0794 1.60536 15.5049 2.12539 15.5049H9.68946C10.2095 15.5049 10.635 15.0794 10.635 14.5593V9.8318H14.417V14.5593C14.417 15.0794 14.8425 15.5049 15.3625 15.5049C15.8825 15.5049 16.308 15.0794 16.308 14.5593V9.8318C16.8281 9.8318 17.2535 9.40632 17.2535 8.88629V7.94078L16.4593 3.96964ZM8.74396 13.6138H3.0709V9.8318H8.74396V13.6138ZM2.12539 2.26773H15.3625C15.8825 2.26773 16.308 1.84225 16.308 1.32222C16.308 0.802188 15.8825 0.376709 15.3625 0.376709H2.12539C1.60536 0.376709 1.17988 0.802188 1.17988 1.32222C1.17988 1.84225 1.60536 2.26773 2.12539 2.26773Z" fill="white"/>
</svg>
