<svg width="19" height="17" viewBox="0 0 19 17" fill="none" xmlns="http://www.w3.org/2000/svg">
<path fill-rule="evenodd" clip-rule="evenodd" d="M8.83633 0.636963C8.12983 0.636963 7.45227 0.922817 6.95269 1.43164C6.45312 1.94046 6.17246 2.63058 6.17246 3.35016V4.25456H3.5086C2.80209 4.25456 2.12453 4.54042 1.62496 5.04924C1.12538 5.55806 0.844727 6.24818 0.844727 6.96776V14.203C0.844727 14.9225 1.12538 15.6127 1.62496 16.1215C2.12453 16.6303 2.80209 16.9162 3.5086 16.9162H15.94C16.6465 16.9162 17.3241 16.6303 17.8236 16.1215C18.3232 15.6127 18.6039 14.9225 18.6039 14.203V6.96776C18.6039 6.24818 18.3232 5.55806 17.8236 5.04924C17.3241 4.54042 16.6465 4.25456 15.94 4.25456H13.2761V3.35016C13.2761 2.63058 12.9955 1.94046 12.4959 1.43164C11.9963 0.922817 11.3187 0.636963 10.6122 0.636963H8.83633ZM11.5002 4.25456H7.94838V3.35016C7.94838 3.1103 8.04193 2.88026 8.20845 2.71066C8.37498 2.54105 8.60083 2.44576 8.83633 2.44576H10.6122C10.8477 2.44576 11.0736 2.54105 11.2401 2.71066C11.4066 2.88026 11.5002 3.1103 11.5002 3.35016V4.25456Z" fill="white"/>
</svg>
