<svg width="30" height="30" viewBox="0 0 30 30" fill="none" xmlns="http://www.w3.org/2000/svg">
<path d="M25.4684 23.3938C26.1157 22.3786 26.4836 21.1574 26.4836 19.8627C26.4836 16.1844 23.541 13.2418 19.8627 13.2418C16.1844 13.2418 13.2418 16.1844 13.2418 19.8627C13.2418 23.541 16.1844 26.4836 19.8627 26.4836C21.1427 26.4836 22.3492 26.1157 23.3644 25.4831L27.9549 30L30 27.9549L25.4684 23.3938ZM19.8627 23.541C18.8871 23.541 17.9516 23.1534 17.2617 22.4636C16.5719 21.7738 16.1844 20.8382 16.1844 19.8627C16.1844 18.8871 16.5719 17.9516 17.2617 17.2617C17.9516 16.5719 18.8871 16.1844 19.8627 16.1844C20.8382 16.1844 21.7738 16.5719 22.4636 17.2617C23.1534 17.9516 23.541 18.8871 23.541 19.8627C23.541 20.8382 23.1534 21.7738 22.4636 22.4636C21.7738 23.1534 20.8382 23.541 19.8627 23.541ZM4.41393 25.0123V13.2418H0L14.7131 0L29.4262 13.2418H26.7484C25.0123 11.4321 22.5699 10.2992 19.8627 10.2992C14.5954 10.2992 10.2992 14.5954 10.2992 19.8627C10.2992 21.7607 10.8583 23.541 11.8146 25.0123H4.41393Z" fill="#C5F250"/>
</svg>
