<svg width="37" height="130" viewBox="0 0 37 130" fill="none" xmlns="http://www.w3.org/2000/svg">
<rect width="36.864" height="76.8" rx="10.24" fill="#171717"/>
<rect y="92.1599" width="36.864" height="36.864" rx="10.24" fill="#010101"/>
<path d="M18.4322 120.832C18.1673 120.832 17.9453 120.743 17.7664 120.564C17.5868 120.384 17.4971 120.162 17.4971 119.897V118.962C15.5488 118.744 13.8774 117.937 12.4827 116.542C11.0875 115.147 10.2808 113.475 10.0625 111.527H9.12739C8.86243 111.527 8.64017 111.437 8.46062 111.258C8.28169 111.079 8.19223 110.857 8.19223 110.592C8.19223 110.327 8.28169 110.105 8.46062 109.925C8.64017 109.746 8.86243 109.657 9.12739 109.657H10.0625C10.2808 107.709 11.0875 106.037 12.4827 104.642C13.8774 103.247 15.5488 102.441 17.4971 102.222V101.287C17.4971 101.022 17.5868 100.8 17.7664 100.62C17.9453 100.442 18.1673 100.352 18.4322 100.352C18.6972 100.352 18.9194 100.442 19.099 100.62C19.2779 100.8 19.3674 101.022 19.3674 101.287V102.222C21.3156 102.441 22.9874 103.247 24.3827 104.642C25.7773 106.037 26.5837 107.709 26.8019 109.657H27.7371C28.002 109.657 28.2243 109.746 28.4038 109.925C28.5828 110.105 28.6722 110.327 28.6722 110.592C28.6722 110.857 28.5828 111.079 28.4038 111.258C28.2243 111.437 28.002 111.527 27.7371 111.527H26.8019C26.5837 113.475 25.7773 115.147 24.3827 116.542C22.9874 117.937 21.3156 118.744 19.3674 118.962V119.897C19.3674 120.162 19.2779 120.384 19.099 120.564C18.9194 120.743 18.6972 120.832 18.4322 120.832ZM18.4322 117.138C20.2402 117.138 21.7832 116.499 23.0613 115.221C24.3393 113.943 24.9783 112.4 24.9783 110.592C24.9783 108.784 24.3393 107.241 23.0613 105.963C21.7832 104.685 20.2402 104.046 18.4322 104.046C16.6243 104.046 15.0812 104.685 13.8032 105.963C12.5251 107.241 11.8861 108.784 11.8861 110.592C11.8861 112.4 12.5251 113.943 13.8032 115.221C15.0812 116.499 16.6243 117.138 18.4322 117.138ZM18.4322 114.333C17.4036 114.333 16.5229 113.966 15.7904 113.234C15.0579 112.501 14.6916 111.621 14.6916 110.592C14.6916 109.563 15.0579 108.683 15.7904 107.95C16.5229 107.218 17.4036 106.851 18.4322 106.851C19.4609 106.851 20.3415 107.218 21.0741 107.95C21.8066 108.683 22.1729 109.563 22.1729 110.592C22.1729 111.621 21.8066 112.501 21.0741 113.234C20.3415 113.966 19.4609 114.333 18.4322 114.333Z" fill="white"/>
<rect x="17.408" y="11.2639" width="2.048" height="16.384" fill="white"/>
<rect x="26.624" y="18.4319" width="2.048" height="16.384" transform="rotate(90 26.624 18.4319)" fill="white"/>
<rect x="26.624" y="57.344" width="2.048" height="16.384" transform="rotate(90 26.624 57.344)" fill="white"/>
<rect x="5.12" y="38.9121" width="26.624" height="1.024" fill="#D9D9D9"/>
</svg>
