<svg width="18" height="13" viewBox="0 0 18 13" fill="none" xmlns="http://www.w3.org/2000/svg">
<path d="M16.2 4.64286V1.85714C16.2 0.835714 15.39 0 14.4 0H3.6C2.61 0 1.8 0.835714 1.8 1.85714V4.64286C0.81 4.64286 0 5.47857 0 6.5V11.1429H1.197L1.656 12.5636C1.746 12.8236 1.98 13 2.25 13C2.38065 12.9998 2.508 12.9577 2.61442 12.8795C2.72084 12.8013 2.80107 12.6909 2.844 12.5636L3.303 11.1429H14.706L15.165 12.5636C15.246 12.8236 15.48 13 15.75 13C15.8806 12.9998 16.008 12.9577 16.1144 12.8795C16.2208 12.8013 16.3011 12.6909 16.344 12.5636L16.803 11.1429H18V6.5C18 5.47857 17.19 4.64286 16.2 4.64286ZM8.1 4.64286H3.6V2.78571C3.6 2.275 4.005 1.85714 4.5 1.85714H8.1V4.64286ZM14.4 4.64286H9.9V1.85714H13.5C13.995 1.85714 14.4 2.275 14.4 2.78571V4.64286Z" fill="white"/>
</svg>
