<svg width="50" height="50" viewBox="0 0 50 50" fill="none" xmlns="http://www.w3.org/2000/svg">
<path d="M50 25C50 38.8071 38.8071 50 25 50C11.1929 50 0 38.8071 0 25C0 11.1929 11.1929 0 25 0C38.8071 0 50 11.1929 50 25Z" fill="black"/>
<path d="M25 7.25806L6.45166 23.9089H12.0162V38.7097H37.9839V23.9089H43.5484L25 7.25806ZM25 15.9535C28.8952 15.9535 32.0484 19.0987 32.0484 22.9839C32.0484 28.5341 25 35.0095 25 35.0095C25 35.0095 17.9517 28.5341 17.9517 22.9839C17.9517 19.0987 21.1049 15.9535 25 15.9535ZM25 20.2087C24.2621 20.2087 23.5545 20.5011 23.0327 21.0215C22.5109 21.542 22.2178 22.2478 22.2178 22.9839C22.2178 23.7199 22.5109 24.4257 23.0327 24.9462C23.5545 25.4666 24.2621 25.759 25 25.759C25.7379 25.759 26.4456 25.4666 26.9674 24.9462C27.4892 24.4257 27.7823 23.7199 27.7823 22.9839C27.7823 22.2478 27.4892 21.542 26.9674 21.0215C26.4456 20.5011 25.7379 20.2087 25 20.2087Z" fill="#C5F250"/>
</svg>
