<svg width="21" height="16" viewBox="0 0 21 16" fill="none" xmlns="http://www.w3.org/2000/svg">
<path d="M10.6618 2.22662C13.9334 2.22662 16.9857 3.47808 19.2574 5.74977L20.5653 4.44188C17.9449 1.82056 14.4273 0.376709 10.6618 0.376709C6.8963 0.377634 3.3787 1.82056 0.758301 4.44188L2.06619 5.74977C4.33787 3.47808 7.39022 2.22662 10.6618 2.22662ZM15.9072 9.91021C13.0639 7.0669 8.25968 7.0669 5.41637 9.91021L6.72426 11.2181C8.85813 9.08423 12.4654 9.08423 14.5993 11.2181L15.9072 9.91021Z" fill="white"/>
<path d="M18.4656 7.12252C14.2368 2.89178 7.08778 2.89178 2.85889 7.12252L4.16677 8.4304C7.68807 4.9091 13.6365 4.9091 17.1578 8.4304L18.4656 7.12252Z" fill="white"/>
<path d="M10.6619 15.1759C11.6836 15.1759 12.5118 14.3477 12.5118 13.326C12.5118 12.3043 11.6836 11.4761 10.6619 11.4761C9.64024 11.4761 8.81201 12.3043 8.81201 13.326C8.81201 14.3477 9.64024 15.1759 10.6619 15.1759Z" fill="white"/>
</svg>
