<svg width="72" height="67" viewBox="0 0 72 67" fill="none" xmlns="http://www.w3.org/2000/svg">
<rect x="-0.000732422" y="0.319824" width="72" height="66" rx="6" fill="#C5F250" fill-opacity="0.14"/>
<path d="M46.9878 49.4615H24.8911C22.208 49.4615 20.1561 47.4097 20.1561 44.7265V27.3649C20.1561 26.8914 20.314 26.4179 20.7875 26.1022L34.9925 17.0539C35.6238 16.5804 36.413 16.5804 36.8865 17.0539L51.0915 26.1022C51.565 26.4179 51.7228 26.8914 51.7228 27.3649V44.7265C51.7228 47.4097 49.671 49.4615 46.9878 49.4615ZM23.3128 28.154V44.7265C23.3128 45.6735 23.9441 46.3049 24.8911 46.3049H46.9878C47.9348 46.3049 48.5661 45.6735 48.5661 44.7265V28.154L35.9395 20.3684L23.3128 28.154Z" fill="#C5F250"/>
<path d="M40.6747 49.4616C39.7277 49.4616 39.0963 48.8303 39.0963 47.8833V33.6783H32.783V47.8833C32.783 48.8303 32.1517 49.4616 31.2047 49.4616C30.2577 49.4616 29.6263 48.8303 29.6263 47.8833V32.0999C29.6263 31.1529 30.2577 30.5216 31.2047 30.5216H40.6747C41.6217 30.5216 42.253 31.1529 42.253 32.0999V47.8833C42.253 48.8303 41.6217 49.4616 40.6747 49.4616Z" fill="#C5F250"/>
</svg>
