<svg width="48" height="48" viewBox="0 0 48 48" fill="none" xmlns="http://www.w3.org/2000/svg">
<circle cx="24" cy="24" r="22.6517" fill="#2A4E0F" stroke="#C5F250" stroke-width="2.69663"/>
<path d="M13.876 19.4128H30.4599C30.6741 19.4128 30.8781 19.3255 31.0259 19.171L34.5343 15.4938C34.772 15.2444 34.5956 14.8312 34.2505 14.8312H17.6666C17.4524 14.8312 17.2484 14.9186 17.1006 15.0731L13.5922 18.7503C13.3545 18.9997 13.5309 19.4128 13.876 19.4128Z" fill="#C5F250"/>
<path d="M31.0259 22.0362C30.8781 21.8816 30.674 21.7943 30.4599 21.7943H13.8759C13.5317 21.7943 13.3545 22.2075 13.5921 22.4569L17.1005 26.1341C17.2483 26.2886 17.4524 26.3759 17.6665 26.3759H34.2504C34.5947 26.3759 34.7719 25.9628 34.5343 25.7134L31.0259 22.0362Z" fill="#C5F250"/>
<path d="M34.2513 28.7557H17.6674C17.4533 28.7557 17.2492 28.843 17.1014 28.9975L13.593 32.6747C13.3554 32.9241 13.5317 33.3373 13.8768 33.3373H30.4608C30.6749 33.3373 30.879 33.2499 31.0268 33.0954L34.5352 29.4182C34.7728 29.1688 34.5965 28.7557 34.2513 28.7557Z" fill="#C5F250"/>
</svg>
