<svg width="18" height="19" viewBox="0 0 18 19" fill="none" xmlns="http://www.w3.org/2000/svg">
<path d="M13.3785 13.0739C13.1981 13.0739 13.025 13.0022 12.8974 12.8746C12.7698 12.747 12.6981 12.574 12.6981 12.3935C12.6981 12.2131 12.7698 12.04 12.8974 11.9124C13.025 11.7848 13.1981 11.7131 13.3785 11.7131C13.553 11.7131 13.7203 11.6438 13.8437 11.5204C13.9671 11.397 14.0364 11.2297 14.0364 11.0552V5.15841C14.0364 4.98392 13.9671 4.81658 13.8437 4.6932C13.7203 4.56982 13.553 4.50051 13.3785 4.50051H7.48171C7.30723 4.50051 7.13989 4.56982 7.01651 4.6932C6.89313 4.81658 6.82381 4.98392 6.82381 5.15841C6.82381 5.33886 6.75213 5.51193 6.62453 5.63952C6.49693 5.76712 6.32387 5.83881 6.14341 5.83881C5.96296 5.83881 5.7899 5.76712 5.6623 5.63952C5.5347 5.51193 5.46301 5.33886 5.46301 5.15841C5.4642 4.62338 5.67727 4.11061 6.05559 3.73229C6.43391 3.35396 6.94669 3.1409 7.48171 3.13971H13.3785C13.9135 3.1409 14.4263 3.35396 14.8046 3.73229C15.183 4.11061 15.396 4.62338 15.3972 5.15841V11.0552C15.396 11.5902 15.183 12.103 14.8046 12.4813C14.4263 12.8597 13.9135 13.0727 13.3785 13.0739Z" fill="#B9B9B9"/>
<path d="M10.3618 16.0232H4.71426C4.43417 16.0236 4.15676 15.9687 3.89792 15.8617C3.63908 15.7546 3.4039 15.5976 3.20584 15.3996C3.00779 15.2015 2.85075 14.9663 2.74373 14.7075C2.63671 14.4486 2.5818 14.1712 2.58216 13.8911V8.22114C2.58168 7.94097 2.6365 7.66346 2.74347 7.40452C2.85044 7.14558 3.00746 6.91029 3.20552 6.71214C3.40359 6.51399 3.63881 6.35687 3.89771 6.24979C4.15661 6.14272 4.43409 6.08778 4.71426 6.08814H10.3618C10.6418 6.08778 10.9193 6.14269 11.1781 6.24971C11.4369 6.35673 11.6721 6.51377 11.8702 6.71182C12.0682 6.90988 12.2253 7.14506 12.3323 7.4039C12.4393 7.66274 12.4942 7.94015 12.4939 8.22024V13.8902C12.5164 15.0701 11.5417 16.0232 10.3618 16.0232ZM4.71426 7.44894C4.61273 7.4481 4.51206 7.46747 4.4181 7.50594C4.32414 7.5444 4.23878 7.60118 4.16699 7.67297C4.0952 7.74476 4.03842 7.83013 3.99996 7.92408C3.96149 8.01804 3.94212 8.11871 3.94296 8.22024V13.8902C3.94212 13.9918 3.96149 14.0924 3.99996 14.1864C4.03842 14.2803 4.0952 14.3657 4.16699 14.4375C4.23878 14.5093 4.32414 14.5661 4.4181 14.6045C4.51206 14.643 4.61273 14.6624 4.71426 14.6615H10.3618C10.4633 14.6624 10.564 14.643 10.6579 14.6045C10.7519 14.5661 10.8372 14.5093 10.909 14.4375C10.9808 14.3657 11.0376 14.2803 11.0761 14.1864C11.1145 14.0924 11.1339 13.9918 11.1331 13.8902V8.22024C11.1339 8.11871 11.1145 8.01804 11.0761 7.92408C11.0376 7.83013 10.9808 7.74476 10.909 7.67297C10.8372 7.60118 10.7519 7.5444 10.6579 7.50594C10.564 7.46747 10.4633 7.4481 10.3618 7.44894H4.71426Z" fill="#B9B9B9"/>
</svg>
