<svg width="72" height="67" viewBox="0 0 72 67" fill="none" xmlns="http://www.w3.org/2000/svg">
<rect x="-0.000732422" y="0.319824" width="72" height="66" rx="6" fill="#C5F250" fill-opacity="0.14"/>
<path d="M21.5738 40.8927C21.1531 40.3458 20.9743 40.0471 20.6966 39.4897L20.3601 38.8755C19.6355 36.9803 19.2627 34.9687 19.26 32.9397C19.2606 28.4737 21.0349 24.1907 24.1929 21.0327C27.3509 17.8748 31.6338 16.1004 36.0999 16.0999C45.3801 16.0999 52.9397 23.6216 52.9397 32.8703C52.9391 37.3363 51.1648 41.6193 48.0068 44.7772C44.8488 47.9352 40.5659 49.7096 36.0999 49.7101C31.3567 49.7101 26.9648 47.8023 23.7865 44.4159C24.5984 43.6418 25.2337 43.1538 26.3464 42.2115C27.5993 43.5393 29.1114 44.5959 30.789 45.3158C32.4667 46.0358 34.2742 46.4039 36.0999 46.3973C37.8672 46.3975 39.6173 46.0496 41.2502 45.3734C42.883 44.6972 44.3667 43.706 45.6164 42.4563C46.8661 41.2065 47.8574 39.7229 48.5336 38.09C49.2098 36.4571 49.5577 34.7071 49.5574 32.9397C49.558 31.1722 49.2103 29.4219 48.5342 27.7887C47.8581 26.1556 46.8669 24.6717 45.6172 23.4218C44.3674 22.1719 42.8837 21.1804 41.2507 20.5041C39.6176 19.8277 37.8674 19.4797 36.0999 19.48C34.3323 19.4797 32.5821 19.8277 30.9491 20.5041C29.316 21.1804 27.8323 22.1719 26.5826 23.4218C25.3328 24.6717 24.3416 26.1556 23.6655 27.7887C22.9894 29.4219 22.6417 31.1722 22.6423 32.9397C22.6462 33.9721 22.7618 35.0011 22.9872 36.0086C24.0116 39.3214 25.2379 38.2382 24.1525 39.1532L21.5738 40.8927Z" fill="#C5F250"/>
<path d="M28.0252 35.9369L28.2986 36.1809L31.866 39.3991C32.2825 39.8156 32.9955 39.8324 33.5046 39.4559L41.7436 31.1222V34.8873C42.5899 34.8917 43.4361 34.891 44.2824 34.8852V28.0744V27.5149L44.2803 27.2962V26.804H36.1401C36.1422 27.0774 36.1443 27.3614 36.1422 27.6811L36.138 28.3605L36.1338 29.3449H39.7285L32.5833 36.6479L32.2825 36.3723L28.875 33.2446C28.3281 32.8302 27.6992 32.8134 27.228 33.1667L23.2021 36.6479C23.3598 37.098 23.8121 38.1455 24.279 39.0352L28.0252 35.9369Z" fill="#C5F250"/>
</svg>
