<svg width="72" height="67" viewBox="0 0 72 67" fill="none" xmlns="http://www.w3.org/2000/svg">
<rect x="-0.000732422" y="0.319824" width="72" height="66" rx="6" fill="#C5F250" fill-opacity="0.14"/>
<path d="M46.9878 49.4615H24.8911C22.208 49.4615 20.1561 47.4097 20.1561 44.7265V27.3649C20.1561 26.8914 20.314 26.4179 20.7875 26.1022L34.9925 17.0539C35.6238 16.5804 36.413 16.5804 36.8865 17.0539L51.0915 26.1022C51.565 26.4179 51.7228 26.8914 51.7228 27.3649V44.7265C51.7228 47.4097 49.671 49.4615 46.9878 49.4615ZM23.3128 28.154V44.7265C23.3128 45.6735 23.9441 46.3049 24.8911 46.3049H46.9878C47.9348 46.3049 48.5661 45.6735 48.5661 44.7265V28.154L35.9395 20.3684L23.3128 28.154Z" fill="#C5F250"/>
<path fill-rule="evenodd" clip-rule="evenodd" d="M29.8242 34.4449C29.3557 33.7616 29.5297 32.828 30.213 32.3595L35.0224 29.0615C35.8745 28.4772 36.9981 28.4772 37.8501 29.0615L42.6596 32.3595C43.3428 32.828 43.5169 33.7616 43.0484 34.4449C42.5799 35.1281 41.6462 35.3021 40.963 34.8336L36.4363 31.7296L31.9096 34.8336C31.2264 35.3021 30.2927 35.1281 29.8242 34.4449Z" fill="#C5F250"/>
<path fill-rule="evenodd" clip-rule="evenodd" d="M34.8112 40.8464L34.8112 30.8464C34.8112 30.018 35.4827 29.3464 36.3112 29.3464C37.1396 29.3464 37.8112 30.018 37.8112 30.8464L37.8112 40.8464C37.8112 41.6749 37.1396 42.3464 36.3112 42.3464C35.4827 42.3464 34.8112 41.6749 34.8112 40.8464Z" fill="#C5F250"/>
</svg>
