<svg width="30" height="30" viewBox="0 0 30 30" fill="none" xmlns="http://www.w3.org/2000/svg">
<circle cx="15" cy="15" r="15" fill="black"/>
<path d="M13.1639 8.61297C13.3354 8.78523 13.4315 9.01855 13.431 9.26162C13.4304 9.50469 13.3334 9.7376 13.1612 9.90913L8.96836 14.0836H22.3334C22.5765 14.0836 22.8096 14.1802 22.9815 14.3521C23.1534 14.524 23.25 14.7572 23.25 15.0003C23.25 15.2434 23.1534 15.4766 22.9815 15.6485C22.8096 15.8204 22.5765 15.917 22.3334 15.917H9.08386L13.1383 19.6845C13.3019 19.8363 13.4044 20.0427 13.4267 20.2648C13.449 20.4869 13.3894 20.7095 13.2593 20.8908L13.1859 20.9797C13.0205 21.1578 12.7911 21.2628 12.5482 21.2717C12.3053 21.2807 12.0688 21.1928 11.8907 21.0274L6.12577 15.6722C6.03527 15.5882 5.96267 15.4868 5.91232 15.3741C5.86198 15.2614 5.83492 15.1396 5.83278 15.0162C5.83064 14.8927 5.85346 14.7701 5.89987 14.6557C5.94628 14.5413 6.01532 14.4375 6.10286 14.3504L11.8678 8.61113C12.04 8.43965 12.2734 8.3436 12.5164 8.34412C12.7595 8.34463 12.9924 8.44167 13.1639 8.61388V8.61297Z" fill="white"/>
</svg>
