<svg width="24" height="24" viewBox="0 0 24 24" fill="none" xmlns="http://www.w3.org/2000/svg">
<g clip-path="url(#clip0_950_953)">
<path d="M3.52936 11.2941C3.52936 10.9197 3.38062 10.5606 3.11587 10.2958C2.85111 10.0311 2.49202 9.88232 2.1176 9.88232C1.74318 9.88232 1.38409 10.0311 1.11933 10.2958C0.85457 10.5606 0.705833 10.9197 0.705833 11.2941V17.9379C0.705833 21.2837 3.39948 24 6.72983 24H17.2701C20.6004 24 23.2941 21.2837 23.2941 17.9379V11.2941C23.2941 10.9197 23.1453 10.5606 22.8806 10.2958C22.6158 10.0311 22.2567 9.88232 21.8823 9.88232C21.5079 9.88232 21.1488 10.0311 20.884 10.2958C20.6193 10.5606 20.4705 10.9197 20.4705 11.2941V17.9379C20.4705 19.7294 19.0348 21.1764 17.2701 21.1764H6.72983C4.96513 21.1764 3.52936 19.7294 3.52936 17.9379V11.2941Z" fill="#C5F250"/>
<path d="M12 1.41162C11.0588 1.41162 10.5882 1.88221 10.5882 2.82339V16.941C10.5882 17.8822 11.0588 18.3528 12 18.3528C12.9412 18.3528 13.4117 17.8822 13.4117 16.941V2.82339C13.4117 1.88221 12.9412 1.41162 12 1.41162Z" fill="#C5F250"/>
<path d="M12.0705 3.99266L16.0658 7.98654C16.3321 8.24371 16.6887 8.386 17.0589 8.38279C17.429 8.37957 17.7831 8.2311 18.0449 7.96934C18.3066 7.70759 18.4551 7.3535 18.4583 6.98334C18.4615 6.61318 18.3192 6.25657 18.0621 5.99031L13.0687 0.998307C12.8039 0.733641 12.4449 0.584961 12.0705 0.584961C11.6962 0.584961 11.3372 0.733641 11.0724 0.998307L6.08184 5.99031C5.947 6.12054 5.83945 6.27632 5.76546 6.44856C5.69147 6.6208 5.65253 6.80605 5.6509 6.9935C5.64927 7.18096 5.68499 7.36686 5.75597 7.54036C5.82696 7.71386 5.93179 7.87149 6.06434 8.00404C6.19689 8.13659 6.35452 8.24142 6.52802 8.31241C6.70152 8.38339 6.88742 8.41911 7.07488 8.41748C7.26233 8.41585 7.44758 8.37691 7.61982 8.30292C7.79206 8.22893 7.94784 8.12138 8.07808 7.98654L12.0705 3.99266Z" fill="#C5F250"/>
</g>
<defs>
<clipPath id="clip0_950_953">
<rect width="24" height="24" fill="white" transform="matrix(-1 0 0 1 24 0)"/>
</clipPath>
</defs>
</svg>
